HIERARCHY
ROOT joint_Root
{
	OFFSET 0.0 0.0 0.0
	CHANNELS 6 Xposition Yposition Zposition Zrotation Xrotation Yrotation 
	JOINT Hips
	{
		OFFSET 4.5925 91.4895 -427.239
		CHANNELS 6 Xposition Yposition Zposition Zrotation Xrotation Yrotation 
		JOINT Spine
		{
			OFFSET 15.7357 0.0 0.0
			CHANNELS 6 Xposition Yposition Zposition Zrotation Xrotation Yrotation 
			JOINT Chest
			{
				OFFSET 8.98455 -0.406207 0.0
				CHANNELS 6 Xposition Yposition Zposition Zrotation Xrotation Yrotation 
				JOINT Neck
				{
					OFFSET 16.3773 0.0 0.0
					CHANNELS 6 Xposition Yposition Zposition Zrotation Xrotation Yrotation 
					JOINT Head
					{
						OFFSET 6.45672 0.0 0.0
						CHANNELS 6 Xposition Yposition Zposition Zrotation Xrotation Yrotation 
						End Site
						{
							OFFSET 0.0 0.0 0.0
						}
					}
				}
				JOINT Shoulder_L
				{
					OFFSET 12.9942 -0.242716 4.98039
					CHANNELS 6 Xposition Yposition Zposition Zrotation Xrotation Yrotation 
					JOINT UpperArm_L
					{
						OFFSET 5.34809 0.0 0.0
						CHANNELS 6 Xposition Yposition Zposition Zrotation Xrotation Yrotation 
						JOINT LowerArm_L
						{
							OFFSET 24.3286 1.87007e-05 0.0
							CHANNELS 6 Xposition Yposition Zposition Zrotation Xrotation Yrotation 
							JOINT Hand_L
							{
								OFFSET 22.2916 0.0 0.0
								CHANNELS 6 Xposition Yposition Zposition Zrotation Xrotation Yrotation 
								End Site
								{
									OFFSET 0.0 0.0 0.0
								}
							}
						}
					}
				}
				JOINT Shoulder_R
				{
					OFFSET 12.9945 -0.242716 -4.98039
					CHANNELS 6 Xposition Yposition Zposition Zrotation Xrotation Yrotation 
					JOINT UpperArm_R
					{
						OFFSET -5.34813 0.0 0.0
						CHANNELS 6 Xposition Yposition Zposition Zrotation Xrotation Yrotation 
						JOINT LowerArm_R
						{
							OFFSET -24.3289 0.000322201 0.0
							CHANNELS 6 Xposition Yposition Zposition Zrotation Xrotation Yrotation 
							JOINT Hand_R
							{
								OFFSET -22.2915 -0.000108084 0.0
								CHANNELS 6 Xposition Yposition Zposition Zrotation Xrotation Yrotation 
								End Site
								{
									OFFSET 0.0 0.0 0.0
								}
							}
						}
					}
				}
			}
		}
		JOINT UpperLeg_L
		{
			OFFSET -2.19248 -6.46944 0.0
			CHANNELS 6 Xposition Yposition Zposition Zrotation Xrotation Yrotation 
			JOINT LowerLeg_L
			{
				OFFSET 39.0811 0.0 -1.23785e-05
				CHANNELS 6 Xposition Yposition Zposition Zrotation Xrotation Yrotation 
				JOINT Foot_L
				{
					OFFSET 40.9854 0.0 -1.26872e-05
					CHANNELS 6 Xposition Yposition Zposition Zrotation Xrotation Yrotation 
					JOINT Toes_L
					{
						OFFSET 11.7543 0.0 0.0
						CHANNELS 6 Xposition Yposition Zposition Zrotation Xrotation Yrotation 
						End Site
						{
							OFFSET 0.0 0.0 0.0
						}
					}
				}
			}
		}
		JOINT UpperLeg_R
		{
			OFFSET -2.19251 6.46944 0.0
			CHANNELS 6 Xposition Yposition Zposition Zrotation Xrotation Yrotation 
			JOINT LowerLeg_R
			{
				OFFSET -39.0811 -0.00228153 -0.0401928
				CHANNELS 6 Xposition Yposition Zposition Zrotation Xrotation Yrotation 
				JOINT Foot_R
				{
					OFFSET -40.9854 0.0 0.0
					CHANNELS 6 Xposition Yposition Zposition Zrotation Xrotation Yrotation 
					JOINT Toes_R
					{
						OFFSET -11.7543 0.0 0.0
						CHANNELS 6 Xposition Yposition Zposition Zrotation Xrotation Yrotation 
						End Site
						{
							OFFSET 0.0 0.0 0.0
						}
					}
				}
			}
		}
	}
}
MOTION
Frames:	4
Frame Time:	0.0333333
0.000000 0.000000 0.000000 0.000000 0.000000 -0.000000 2.558800 83.330600 2.005710 89.069600 -3.049950 9.691820 15.735700 0.000005 -0.000001 100.515000 80.761800 -101.178000 8.984550 -0.406207 -0.000000 10.432800 3.333510 -1.629640 16.377300 -0.000001 -0.000001 -0.889660 -6.590920 1.796870 6.456720 -0.000001 -0.000000 -2.620970 -11.204200 6.275350 12.994200 -0.242716 4.980390 -92.827100 7.229440 -68.574300 5.348090 -0.000007 -0.000001 -68.376700 10.341000 4.535570 24.328600 0.000019 0.000005 2.500870 5.669190 -23.851000 22.291600 -0.000001 0.000005 15.892600 5.190820 2.940680 12.994500 -0.242716 -4.980390 88.362200 9.740580 -80.407500 -5.348130 -0.000001 -0.000004 -60.043300 31.259400 -11.791000 -24.328900 0.000322 -0.000009 -0.872687 -1.627730 -28.164600 -22.291500 -0.000108 -0.000004 16.705400 5.416430 -3.480050 -2.192480 -6.469440 -0.000000 -175.411000 -13.633100 -11.754800 39.081100 -0.000007 -0.000012 -0.582620 0.361867 58.156800 40.985400 -0.000006 -0.000013 2.789510 3.759590 -86.648900 11.754300 -0.000000 0.000003 -0.000375 -0.003133 -16.693400 -2.192510 6.469440 -0.000001 174.489000 11.591000 167.338000 -39.081100 -0.002282 -0.040193 0.070830 -0.040420 59.133000 -40.985400 0.000008 0.000006 4.169420 4.991950 -83.672600 -11.754300 -0.000006 -0.000006 -1.803320 -2.201900 -18.336100
0.000000 0.000000 0.000000 0.000000 0.000000 -0.000000 3.148950 84.691600 2.215790 89.370500 -4.523580 8.927350 15.735700 0.000005 -0.000001 99.847500 81.418000 -99.786600 8.984550 -0.406207 -0.000000 9.152380 2.920390 -0.112136 16.377300 -0.000001 -0.000001 -0.228064 -6.439510 1.876450 6.456720 -0.000001 -0.000000 -2.210620 -10.444700 5.138570 12.994200 -0.242716 4.980390 -92.496700 6.144530 -67.834900 5.348090 -0.000007 -0.000001 -64.784300 3.934550 0.427680 24.328600 0.000019 0.000005 3.193290 7.177790 -24.058300 22.291600 -0.000001 0.000005 12.646200 5.222430 2.151020 12.994500 -0.242716 -4.980390 88.236100 9.656570 -79.597000 -5.348130 -0.000001 -0.000004 -60.251800 29.338400 -11.867000 -24.328900 0.000322 -0.000009 -0.358122 -0.706405 -26.815100 -22.291500 -0.000108 -0.000004 17.127200 5.401220 -2.977520 -2.192480 -6.469440 -0.000000 -176.462000 -14.024300 -10.195800 39.081100 -0.000007 -0.000012 -0.522595 0.382617 53.791600 40.985400 -0.000006 -0.000013 2.473400 2.596230 -84.682300 11.754300 -0.000000 0.000003 -0.000382 -0.003181 -16.695100 -2.192510 6.469440 -0.000001 174.239000 10.054100 168.320000 -39.081100 -0.002282 -0.040193 0.054834 -0.036019 55.087200 -40.985400 0.000008 0.000006 3.647860 5.259790 -81.578100 -11.754300 -0.000006 -0.000006 -1.673630 -2.037200 -18.351200
0.000000 0.000000 0.000000 0.000000 0.000000 -0.000000 3.522140 86.430700 2.300490 89.374600 -4.612380 7.716170 15.735700 0.000005 -0.000001 99.698100 82.401600 -98.699400 8.984550 -0.406207 -0.000000 7.197550 2.545850 1.835380 16.377300 -0.000001 -0.000001 1.707390 -6.719550 1.456620 6.456720 -0.000001 -0.000000 -1.586540 -10.038600 2.462000 12.994200 -0.242716 4.980390 -92.061800 4.991670 -67.523000 5.348090 -0.000007 -0.000001 -59.180800 -6.319020 -9.201300 24.328600 0.000019 0.000005 4.135950 8.461290 -26.184400 22.291600 -0.000001 0.000005 13.932000 5.207690 2.527330 12.994500 -0.242716 -4.980390 88.099700 9.289560 -78.385200 -5.348130 -0.000001 -0.000004 -60.899300 27.386900 -10.071400 -24.328900 0.000322 -0.000009 -0.677717 -1.325720 -27.040700 -22.291500 -0.000108 -0.000004 17.342000 5.418520 -3.552700 -2.192480 -6.469440 -0.000000 -177.325000 -13.194900 -8.715350 39.081100 -0.000007 -0.000012 -0.439989 0.395740 48.031800 40.985400 -0.000006 -0.000013 2.177700 1.778970 -81.744600 11.754300 -0.000000 0.000003 -0.000352 -0.002976 -16.687800 -2.192510 6.469440 -0.000001 174.168000 10.490000 169.776000 -39.081100 -0.002282 -0.040193 0.043051 -0.033958 49.530600 -40.985400 0.000008 0.000006 3.440730 5.875430 -78.528400 -11.754300 -0.000006 -0.000006 -1.579050 -1.906750 -18.600700
0.000000 0.000000 0.000000 0.000000 0.000000 -0.000000 3.662490 88.036900 2.366530 89.226100 -3.388950 6.810240 15.735700 0.000005 -0.000001 96.272600 83.328500 -94.531400 8.984550 -0.406207 -0.000000 5.479110 1.419750 3.410560 16.377300 -0.000001 -0.000001 3.860780 -7.317480 1.185190 6.456720 -0.000001 -0.000000 -0.459353 -9.826880 -0.269587 12.994200 -0.242716 4.980390 -91.485900 3.757990 -68.412900 5.348090 -0.000007 -0.000001 -53.012000 -17.494100 -21.418800 24.328600 0.000019 0.000005 1.707900 2.789220 -31.548200 22.291600 -0.000001 0.000005 17.590200 5.236680 1.794180 12.994500 -0.242716 -4.980390 87.990100 8.874050 -77.183700 -5.348130 -0.000001 -0.000004 -61.131200 26.939500 -8.817630 -24.328900 0.000322 -0.000009 -1.321690 -2.590130 -27.027800 -22.291500 -0.000108 -0.000004 16.098800 5.441210 -4.333270 -2.192480 -6.469440 -0.000000 -177.866000 -11.125400 -6.965570 39.081100 -0.000007 -0.000012 -0.344159 0.379592 42.197900 40.985400 -0.000006 -0.000013 1.906350 1.273440 -78.679600 11.754300 -0.000000 0.000003 -0.000317 -0.002724 -16.678800 -2.192510 6.469440 -0.000001 173.951000 13.167200 172.158000 -39.081100 -0.002282 -0.040193 0.033732 -0.032096 43.505300 -40.985400 0.000008 0.000006 3.424320 7.209210 -75.789300 -11.754300 -0.000006 -0.000006 -1.319110 -1.587370 -18.615700
